<svg xmlns="http://www.w3.org/2000/svg" width="220" height="90" viewBox="0 0 220 90">
  <g id="Group_173300" data-name="Group 173300" transform="translate(-120 -754)">
    <g id="Path_38180" data-name="Path 38180" transform="translate(120 754)" fill="#fff">
      <path d="M 208 89 L 12 89 C 9.061805725097656 89 6.299444675445557 87.85580444335938 4.221833229064941 85.77816772460938 C 2.144194364547729 83.70055389404297 1 80.93819427490234 1 78 L 1 12 C 1 9.061805725097656 2.144194364547729 6.299444675445557 4.221833229064941 4.221833229064941 C 6.299444675445557 2.144194364547729 9.061805725097656 1 12 1 L 208 1 C 210.9382019042969 1 213.7005615234375 2.144194364547729 215.7781677246094 4.221833229064941 C 217.8558044433594 6.299444675445557 219 9.061805725097656 219 12 L 219 78 C 219 80.93819427490234 217.8558044433594 83.70055389404297 215.7781677246094 85.77816772460938 C 213.7005615234375 87.85580444335938 210.9382019042969 89 208 89 Z" stroke="none"/>
      <path d="M 12 2 C 6.485977172851562 2 2 6.485969543457031 2 12 L 2 78 C 2 83.51403045654297 6.485977172851562 88 12 88 L 208 88 C 213.5140228271484 88 218 83.51403045654297 218 78 L 218 12 C 218 6.485969543457031 213.5140228271484 2 208 2 L 12 2 M 12 0 L 208 0 C 214.6274108886719 0 220 5.372589111328125 220 12 L 220 78 C 220 84.62741088867188 214.6274108886719 90 208 90 L 12 90 C 5.372589111328125 90 0 84.62741088867188 0 78 L 0 12 C 0 5.372589111328125 5.372589111328125 0 12 0 Z" stroke="none" fill="#f4f5f5"/>
    </g>
    <text id="White_FFFFFF" data-name="White
#FFFFFF" transform="translate(136 777)" fill="#172026" font-size="16" font-family="Muli-Bold, Muli" letter-spacing="0.02em" font-weight="700"><tspan x="0" y="16">White</tspan><tspan font-family="ProximaNova-Regular, Proxima Nova" font-weight="400"><tspan x="0" y="38">#FFFFFF</tspan></tspan></text>
    <text id="_0.00" data-name="0.00" transform="translate(288 811)" fill="#353c48" font-size="16" font-family="Muli-Bold, Muli" font-weight="700" letter-spacing="0.02em"><tspan x="0" y="16">0.00</tspan></text>
  </g>
</svg>
