<svg xmlns="http://www.w3.org/2000/svg" width="571.399" height="285.5" viewBox="0 0 571.399 285.5">
  <path id="LOGO_XBZ_04" d="M580.6,17.6H161.2L133.8,80,101.7,17.6l-88.2-.2,74.2,141L9.2,302.9H96.8l28.7-64.8,35.3,64,144.1.8V94.2s5.3-.3,11.8,0c8.8,0,24.2.3,24.2,15.9s-24.4,15.3-24.4,15.3v76.3h24.4s13.5,1.5,13.5,14.7c0,13.3-13.5,13.3-13.5,13.3H316.7v72.8H580.6V220.9H492.8ZM219.5,242.2l-45.2-83.7,45.4-87.4Zm189.1-63.8s-2.7-17.3-25.9-27.7c0,0,28.3-20,30-50.7,16.5.2,40.5,0,40.5,0Z" transform="translate(-9.2 -17.4)" fill="#fba301"/>
</svg>
