<svg xmlns="http://www.w3.org/2000/svg" xmlns:xlink="http://www.w3.org/1999/xlink" width="576.1" height="357" viewBox="0 0 576.1 357">
  <defs>
    <linearGradient id="linear-gradient" x1="0.5" x2="0.5" y2="1" gradientUnits="objectBoundingBox">
      <stop offset="0" stop-color="#036799"/>
      <stop offset="0.169" stop-color="#035a8c"/>
      <stop offset="0.592" stop-color="#023f6f"/>
      <stop offset="0.835" stop-color="#023564"/>
    </linearGradient>
  </defs>
  <g id="LOGO_XBZ_01B" transform="translate(-14.5 -5.9)">
    <path id="Path_15" data-name="Path 15" d="M590.6,9.6H171.2L143.8,72,111.7,9.6,23.5,9.4l74.2,141L19.2,294.9h87.6l28.7-64.8,35.3,64,144.1.8V86.2s5.3-.3,11.8,0c8.8,0,24.2.3,24.2,15.9s-24.4,15.3-24.4,15.3v76.3h24.4s13.5,1.5,13.5,14.7c0,13.3-13.5,13.3-13.5,13.3H326.7v72.8H590.6V212.9H502.8ZM229.5,234.2l-45.2-83.7,45.4-87.4Zm189.1-63.8s-2.7-17.3-25.9-27.7c0,0,28.3-20,30-50.7,16.5.2,40.5,0,40.5,0Z" fill="#fba301"/>
    <g id="Group_27" data-name="Group 27">
      <path id="Path_16" data-name="Path 16" d="M15.9,316H28.1a25.924,25.924,0,0,1,4.8.4,11.387,11.387,0,0,1,4.4,1.8,9.688,9.688,0,0,1,3.2,3.7,14.143,14.143,0,0,1,1.2,6.3,10.141,10.141,0,0,1-1.9,6.2,9.329,9.329,0,0,1-5.7,3.5v.1a9.353,9.353,0,0,1,3.8,1.1,8.855,8.855,0,0,1,3,2.4,10.778,10.778,0,0,1,1.9,3.5,12.883,12.883,0,0,1,.7,4.5,13.616,13.616,0,0,1-1.4,6.5,11.4,11.4,0,0,1-3.5,4,13.43,13.43,0,0,1-4.6,2,19.549,19.549,0,0,1-4.6.5H15.9Zm3.9,20.1H28a14.142,14.142,0,0,0,5-.8,7.515,7.515,0,0,0,3-2,5.723,5.723,0,0,0,1.4-2.5,11.777,11.777,0,0,0,.4-2.5,9.257,9.257,0,0,0-.7-4,7.53,7.53,0,0,0-2-2.6,6.989,6.989,0,0,0-2.9-1.3,13.425,13.425,0,0,0-3.5-.4H20v16.1Zm0,22.4h9a14.566,14.566,0,0,0,5.6-.9,9.232,9.232,0,0,0,3.3-2.3,6.236,6.236,0,0,0,1.5-2.9,9.581,9.581,0,0,0-2.8-10.2,9.408,9.408,0,0,0-3.3-1.7,11.415,11.415,0,0,0-3.7-.5H19.8v18.5Z" fill="#022d54"/>
      <path id="Path_17" data-name="Path 17" d="M107.1,316h12.2c.6,0,1.4,0,2.5.1a20.919,20.919,0,0,1,3.4.4,17.322,17.322,0,0,1,3.7,1.1,10.783,10.783,0,0,1,3.4,2.1,11.614,11.614,0,0,1,2.5,3.5,11.325,11.325,0,0,1,1,5.1,12.5,12.5,0,0,1-1.1,5.5,11.1,11.1,0,0,1-2.9,3.5,11.575,11.575,0,0,1-3.8,2c-1.4.4-7.1.7-8.4.9l17.9,22.3h-4.9l-17.4-22.1h-3.7v22.1h-4.3V316Zm4.3,20.5h9.2a14.918,14.918,0,0,0,5.6-.9,10.422,10.422,0,0,0,3.3-2.1,6.268,6.268,0,0,0,1.6-2.7,8.677,8.677,0,0,0,.4-2.6,8.239,8.239,0,0,0-.4-2.6,6.268,6.268,0,0,0-1.6-2.7,10.423,10.423,0,0,0-3.3-2.1,14.566,14.566,0,0,0-5.6-.9h-9.2Z" fill="#022d54"/>
      <path id="Path_18" data-name="Path 18" d="M198.5,316.4h4.4v46.5h-4.4Z" fill="#022d54"/>
      <path id="Path_19" data-name="Path 19" d="M266.3,316h5.5l27.8,40.7h.1V316H304v46.5h-5.5l-27.8-40.7h-.1v40.7h-4.3Z" fill="#022d54"/>
      <path id="Path_20" data-name="Path 20" d="M367.9,316H382a29.867,29.867,0,0,1,10.1,1.5,21.684,21.684,0,0,1,6.9,3.8,17.214,17.214,0,0,1,4.3,5.1,23.652,23.652,0,0,1,2.3,5.3,23.123,23.123,0,0,1,.9,4.6c.1,1.4.2,2.4.2,2.9,0,.6-.1,1.5-.2,2.9a21.85,21.85,0,0,1-.9,4.6,30.09,30.09,0,0,1-2.3,5.4,18.849,18.849,0,0,1-4.3,5.1,22.564,22.564,0,0,1-6.9,3.8,29.867,29.867,0,0,1-10.1,1.5H367.8V316Zm4.3,42.5H381a33.545,33.545,0,0,0,8.5-1.1,19.08,19.08,0,0,0,6.8-3.5,17.194,17.194,0,0,0,4.6-6,22.6,22.6,0,0,0,0-17.2,17.194,17.194,0,0,0-4.6-6,19.08,19.08,0,0,0-6.8-3.5,29.128,29.128,0,0,0-8.5-1.1h-8.8Z" fill="#022d54"/>
      <path id="Path_21" data-name="Path 21" d="M469,316h27.7v3.9H473.2v16.5h22v3.9h-22v18.1h24.5v3.9H469Z" fill="#022d54"/>
      <path id="Path_22" data-name="Path 22" d="M557.7,352.9a11.163,11.163,0,0,0,4.2,4.4,11.328,11.328,0,0,0,5.8,1.4,9.521,9.521,0,0,0,3.8-.7,10.516,10.516,0,0,0,3.1-1.8,7.752,7.752,0,0,0,2.1-2.9,9.213,9.213,0,0,0,.8-3.8,6.989,6.989,0,0,0-1-4,8.066,8.066,0,0,0-2.6-2.6,14.878,14.878,0,0,0-3.6-1.7c-1.3-.5-2.7-1-4.1-1.4-1.4-.5-2.8-1-4.1-1.6a14.143,14.143,0,0,1-3.6-2.4,11.194,11.194,0,0,1-2.6-3.7,14.605,14.605,0,0,1-1-5.5,13.487,13.487,0,0,1,1.1-5.5,12.142,12.142,0,0,1,7.6-6.4,18.9,18.9,0,0,1,5.3-.8,15.877,15.877,0,0,1,6.6,1.3,13.221,13.221,0,0,1,5.3,4.5l-3.5,2.7a9.783,9.783,0,0,0-8.5-4.6,12.089,12.089,0,0,0-3.8.6,10.1,10.1,0,0,0-3.1,1.6,7.051,7.051,0,0,0-2.1,2.7,9.346,9.346,0,0,0-.8,3.9,8.119,8.119,0,0,0,1.7,5.4,13.278,13.278,0,0,0,4.2,3,42.864,42.864,0,0,0,5.4,1.9,21.819,21.819,0,0,1,5.4,2.2,11.776,11.776,0,0,1,4.2,3.8,11.977,11.977,0,0,1,1.7,6.8,13.979,13.979,0,0,1-1.1,5.6,11.183,11.183,0,0,1-3,4.1,12,12,0,0,1-4.4,2.5,14.812,14.812,0,0,1-5.1.9,19.386,19.386,0,0,1-8-1.6,15.135,15.135,0,0,1-6.2-5.4Z" fill="#022d54"/>
    </g>
    <path id="Path_23" data-name="Path 23" d="M583,6H165.7L138.4,68.1,106.5,6,18.8,5.9,92.7,146.2,14.5,289.9h87.1l28.5-64.5,35.2,63.7,143.4.8V82.2s5.3-.3,11.7,0c8.8,0,24,.3,24,15.8s-24.3,15.2-24.3,15.2v75.9h24.3s13.5,1.5,13.5,14.7S344.5,217,344.5,217h-24v72.4H583V208.2H495.7ZM223.7,229.6l-44.9-83.2,45.2-88Zm191.1-68s-5.7-12.7-28.7-23.1c0,0,28.1-19.9,29.9-50.4,16.4.2,40.2,0,40.2,0Z" fill="url(#linear-gradient)"/>
  </g>
</svg>
